<?xml version="1.0" encoding="UTF-8" standalone="no"?>
<!-- Created with Inkscape (http://www.inkscape.org/) -->

<svg
   xmlns:dc="http://purl.org/dc/elements/1.1/"
   xmlns:cc="http://creativecommons.org/ns#"
   xmlns:rdf="http://www.w3.org/1999/02/22-rdf-syntax-ns#"
   xmlns:svg="http://www.w3.org/2000/svg"
   xmlns="http://www.w3.org/2000/svg"
   xmlns:sodipodi="http://sodipodi.sourceforge.net/DTD/sodipodi-0.dtd"
   xmlns:inkscape="http://www.inkscape.org/namespaces/inkscape"
   width="124.29"
   height="124.29"
   id="svg3784"
   version="1.1"
   inkscape:version="0.47 r22583"
   sodipodi:docname="New document 3">
  <defs
     id="defs3786">
    <inkscape:perspective
       sodipodi:type="inkscape:persp3d"
       inkscape:vp_x="0 : 526.18109 : 1"
       inkscape:vp_y="0 : 1000 : 0"
       inkscape:vp_z="744.09448 : 526.18109 : 1"
       inkscape:persp3d-origin="372.04724 : 350.78739 : 1"
       id="perspective3792" />
    <inkscape:perspective
       id="perspective3752"
       inkscape:persp3d-origin="0.5 : 0.33333333 : 1"
       inkscape:vp_z="1 : 0.5 : 1"
       inkscape:vp_y="0 : 1000 : 0"
       inkscape:vp_x="0 : 0.5 : 1"
       sodipodi:type="inkscape:persp3d" />
    <clipPath
       clipPathUnits="userSpaceOnUse"
       id="clipPath866">
      <path
         d="m 0,1067.7291 841.89,0 0,108.649 -841.89,0 0,-108.649 z"
         id="path868" />
    </clipPath>
  </defs>
  <sodipodi:namedview
     id="base"
     pagecolor="#ffffff"
     bordercolor="#666666"
     borderopacity="1.0"
     inkscape:pageopacity="0.0"
     inkscape:pageshadow="2"
     inkscape:zoom="3.6071707"
     inkscape:cx="62.597964"
     inkscape:cy="62.597964"
     inkscape:document-units="px"
     inkscape:current-layer="layer1"
     showgrid="false"
     inkscape:window-width="1024"
     inkscape:window-height="708"
     inkscape:window-x="-4"
     inkscape:window-y="-4"
     inkscape:window-maximized="1" />
  <metadata
     id="metadata3789">
    <rdf:RDF>
      <cc:Work
         rdf:about="">
        <dc:format>image/svg+xml</dc:format>
        <dc:type
           rdf:resource="http://purl.org/dc/dcmitype/StillImage" />
        <dc:title></dc:title>
      </cc:Work>
    </rdf:RDF>
  </metadata>
  <g
     inkscape:label="Layer 1"
     inkscape:groupmode="layer"
     id="layer1"
     transform="translate(-238.85569,-306.35934)">
    <g
       transform="matrix(1.25,0,0,-1.25,-225.19757,1770.8105)"
       id="g862">
      <g
         id="g864"
         clip-path="url(#clipPath866)">
        <path
           d="m 371.9954,1121.9315 c 0,26.9673 21.8607,48.828 48.828,48.828 26.9672,0 48.828,-21.8607 48.828,-48.828 0,-26.9673 -21.8608,-48.828 -48.828,-48.828 -26.9673,0 -48.828,21.8607 -48.828,48.828"
           style="fill:#bdb300;fill-opacity:1;fill-rule:nonzero;stroke:none"
           id="path870" />
        <path
           d="m 371.9954,1121.9315 c 0,26.9673 21.8607,48.828 48.828,48.828 26.9672,0 48.828,-21.8607 48.828,-48.828 0,-26.9673 -21.8608,-48.828 -48.828,-48.828 -26.9673,0 -48.828,21.8607 -48.828,48.828 z"
           style="fill:none;stroke:#bdb300;stroke-width:0.1749;stroke-linecap:butt;stroke-linejoin:miter;stroke-miterlimit:3.86369991;stroke-opacity:1;stroke-dasharray:none"
           id="path872" />
        <path
           d="m 379.9269,1121.9315 c 0,22.5868 18.3097,40.8965 40.8965,40.8965 22.5868,0 40.8964,-18.3097 40.8964,-40.8965 0,-22.5868 -18.3096,-40.8965 -40.8964,-40.8965 -22.5868,0 -40.8965,18.3097 -40.8965,40.8965"
           style="fill:#4d2b1a;fill-opacity:1;fill-rule:nonzero;stroke:none"
           id="path874" />
        <path
           d="m 379.9269,1121.9315 c 0,22.5868 18.3097,40.8965 40.8965,40.8965 22.5868,0 40.8964,-18.3097 40.8964,-40.8965 0,-22.5868 -18.3096,-40.8965 -40.8964,-40.8965 -22.5868,0 -40.8965,18.3097 -40.8965,40.8965 z"
           style="fill:none;stroke:#4d2b1a;stroke-width:0.1749;stroke-linecap:butt;stroke-linejoin:miter;stroke-miterlimit:3.86369991;stroke-opacity:1;stroke-dasharray:none"
           id="path876" />
        <path
           d="m 420.6302,1128.5383 c 1.3116,-2.2004 2.6008,-4.0603 3.8678,-5.5792 1.0148,1.3261 1.5222,2.356 1.5226,3.0897 0,0.378 -0.1522,0.6815 -0.4557,0.9114 -0.3039,0.2368 -0.8484,0.3702 -1.6338,0.4 l 0,1.0004 6.3017,0 0,-1.0004 c -0.7485,0 -1.3191,-0.1371 -1.7116,-0.4111 -0.3855,-0.2667 -0.8891,-0.9486 -1.5115,-2.045 -0.5633,-0.9781 -1.1336,-1.8709 -1.7115,-2.6785 0.5924,-0.615 1.0665,-1.0225 1.4226,-1.2224 0.3629,-0.1929 0.7109,-0.2891 1.0447,-0.2891 0.4591,0 0.8444,0.1779 1.1558,0.5335 0.3112,0.363 0.489,0.9333 0.5335,1.7115 l 0.967,0 c -0.008,-1.4152 -0.3002,-2.4711 -0.8781,-3.1675 -0.6817,-0.8077 -1.6226,-1.211 -2.8229,-1.2113 -0.5929,0 -1.1635,0.1038 -1.7116,0.3111 -0.5484,0.2072 -1.219,0.6186 -2.0116,1.2337 -0.9486,-0.5929 -1.7748,-0.9968 -2.4784,-1.2115 -0.7041,-0.2222 -1.4636,-0.3333 -2.2784,-0.3333 -1.5265,0 -2.7528,0.4258 -3.6787,1.2781 -0.9264,0.8518 -1.3892,1.9188 -1.3892,3.2007 0,2.1636 1.4259,3.8674 4.2787,5.1125 -0.5039,1.0371 -0.8335,1.8223 -0.9891,2.3562 -0.1556,0.5408 -0.2334,1.0555 -0.2334,1.5448 0,1.0298 0.4074,1.904 1.2225,2.623 0.8149,0.7185 1.8856,1.0776 3.212,1.0781 1.3337,0 2.3562,-0.2855 3.0674,-0.8559 0.7114,-0.5633 1.0671,-1.2782 1.0671,-2.1451 0,-0.7334 -0.3001,-1.4485 -0.9003,-2.1448 -0.5929,-0.6892 -1.682,-1.3858 -3.2676,-2.0896 z m -0.4667,0.9003 c 0.852,0.3925 1.4371,0.8221 1.7559,1.2893 0.3258,0.474 0.4889,1.0776 0.4892,1.8117 0,0.7333 -0.1557,1.2854 -0.4668,1.6557 -0.3112,0.3781 -0.7336,0.5669 -1.2671,0.5669 -0.5039,0 -0.919,-0.1778 -1.2446,-0.5334 -0.319,-0.3483 -0.478,-0.8225 -0.478,-1.4226 0,-0.8597 0.4036,-1.9821 1.2114,-3.3676 z m -2.245,-2.2784 c -0.6001,-0.4522 -1.0191,-0.8929 -1.256,-1.3224 -0.2299,-0.4301 -0.3444,-0.9081 -0.3444,-1.4337 0,-0.9781 0.3518,-1.9192 1.0558,-2.823 0.7036,-0.9041 1.5667,-1.356 2.5895,-1.356 0.7186,0 1.4594,0.2445 2.2228,0.7334 -1.208,1.5339 -1.9894,2.5563 -2.3451,3.0676 -0.3556,0.5186 -0.9967,1.5633 -1.9226,3.1341"
           style="fill:#bdb300;fill-opacity:1;fill-rule:evenodd;stroke:none"
           id="path878" />
        <path
           d="m 435.449,1113.8336 11.8261,0 c 4.4579,0 5.9867,0.9215 7.2261,2.3964 1.1486,1.3641 2.0492,3.355 2.0492,5.4559 0,2.6174 -1.5697,5.1984 -4.2299,6.4146 0.9028,0.5528 2.1305,1.6223 2.1305,5.4193 0,2.7282 -1.3596,6.7834 -6.6857,6.7834 l -12.3163,0 0,-26.4696 z m 4.35,11.6493 7.8914,0 c 1.6387,0 3.8008,-0.8841 3.8008,-3.2068 0,-2.6911 -1.7982,-3.8713 -4.0124,-3.8713 l -7.6798,0 0,7.0781 z m 0,10.2488 6.0918,0 c 2.0617,0 3.6856,-0.6633 3.6856,-2.8385 0,-2.1011 -1.7752,-2.9494 -3.5646,-2.9494 l -6.2128,0"
           style="fill:#ffffff;fill-opacity:1;fill-rule:evenodd;stroke:none"
           id="path880" />
        <path
           d="m 435.449,1113.8336 11.8261,0 c 4.4579,0 5.9867,0.9215 7.2261,2.3964 1.1486,1.3641 2.0492,3.355 2.0492,5.4559 0,2.6174 -1.5697,5.1984 -4.2299,6.4146 0.9028,0.5528 2.1305,1.6223 2.1305,5.4193 0,2.7282 -1.3596,6.7834 -6.6857,6.7834 l -12.3163,0 0,-26.4696 z"
           style="fill:none;stroke:#ffffff;stroke-width:1.2392;stroke-linecap:butt;stroke-linejoin:miter;stroke-miterlimit:3.86369991;stroke-opacity:1;stroke-dasharray:none"
           id="path882" />
        <path
           d="m 439.799,1125.4829 7.8914,0 c 1.6387,0 3.8008,-0.8841 3.8008,-3.2068 0,-2.6911 -1.7982,-3.8713 -4.0124,-3.8713 l -7.6798,0 0,7.0781 z"
           style="fill:none;stroke:#ffffff;stroke-width:1.2392;stroke-linecap:butt;stroke-linejoin:miter;stroke-miterlimit:3.86369991;stroke-opacity:1;stroke-dasharray:none"
           id="path884" />
        <path
           d="m 439.799,1135.7317 6.0918,0 c 2.0617,0 3.6856,-0.6633 3.6856,-2.8385 0,-2.1011 -1.7752,-2.9494 -3.5646,-2.9494 l -6.2128,0 0,5.7879 z"
           style="fill:none;stroke:#ffffff;stroke-width:1.2392;stroke-linecap:butt;stroke-linejoin:miter;stroke-miterlimit:3.86369991;stroke-opacity:1;stroke-dasharray:none"
           id="path886" />
        <path
           d="m 402.5084,1100.646 1.2794,0 0,8.4346 -1.2794,0 0,-3.6132 -3.3407,0 0,3.6132 -1.2794,0 0,-8.4346 1.2794,0 0,3.6841 3.3407,0"
           style="fill:#bdb300;fill-opacity:1;fill-rule:nonzero;stroke:none"
           id="path888" />
        <path
           d="m 402.5084,1100.646 1.2794,0 0,8.4346 -1.2794,0 0,-3.6132 -3.3407,0 0,3.6132 -1.2794,0 0,-8.4346 1.2794,0 0,3.6841 3.3407,0 0,-3.6841 z"
           style="fill:none;stroke:#bdb300;stroke-width:0.1749;stroke-linecap:butt;stroke-linejoin:miter;stroke-miterlimit:3.86369991;stroke-opacity:1;stroke-dasharray:none"
           id="path890" />
        <path
           d="m 407.0542,1104.8633 c 0,-2.0259 0.0948,-2.2747 0.3674,-2.7722 0.4027,-0.7344 1.3147,-1.5163 2.6415,-1.5163 1.327,0 2.2391,0.7819 2.6419,1.5163 0.2724,0.4975 0.3673,0.7463 0.3673,2.7722 0,2.0254 -0.0949,2.2744 -0.3673,2.772 -0.4028,0.7343 -1.3149,1.5163 -2.6419,1.5163 -1.3268,0 -2.2388,-0.782 -2.6415,-1.5163 -0.2726,-0.4976 -0.3674,-0.7466 -0.3674,-2.772 z m 1.2794,0 c 0,1.7295 0.0949,1.9664 0.4267,2.3929 0.2603,0.3316 0.6988,0.6159 1.3028,0.6159 0.6044,0 1.0426,-0.2843 1.3032,-0.6159 0.3316,-0.4265 0.4265,-0.6634 0.4265,-2.3929 0,-1.7295 -0.0949,-1.9666 -0.4265,-2.3931 -0.2606,-0.3315 -0.6988,-0.616 -1.3032,-0.616 -0.604,0 -1.0425,0.2845 -1.3028,0.616 -0.3318,0.4265 -0.4267,0.6636 -0.4267,2.3931"
           style="fill:#bdb300;fill-opacity:1;fill-rule:evenodd;stroke:none"
           id="path892" />
        <path
           d="m 417.558,1100.646 1.2794,0 0,7.2972 2.3099,0 0,1.1374 -5.8994,0 0,-1.1374 2.3101,0"
           style="fill:#bdb300;fill-opacity:1;fill-rule:nonzero;stroke:none"
           id="path894" />
        <path
           d="m 417.558,1100.646 1.2794,0 0,7.2972 2.3099,0 0,1.1374 -5.8994,0 0,-1.1374 2.3101,0 0,-7.2972 z"
           style="fill:none;stroke:#bdb300;stroke-width:0.1645;stroke-linecap:butt;stroke-linejoin:miter;stroke-miterlimit:3.86369991;stroke-opacity:1;stroke-dasharray:none"
           id="path896" />
        <path
           d="m 423.8242,1100.646 5.3901,0 0,1.2082 -4.1107,0 0,2.4759 3.5066,0 0,1.1373 -3.5066,0 0,2.4047 4.1107,0 0,1.2085 -5.3901,0"
           style="fill:#bdb300;fill-opacity:1;fill-rule:nonzero;stroke:none"
           id="path898" />
        <path
           d="m 423.8242,1100.646 5.3901,0 0,1.2082 -4.1107,0 0,2.4759 3.5066,0 0,1.1373 -3.5066,0 0,2.4047 4.1107,0 0,1.2085 -5.3901,0 0,-8.4346 z"
           style="fill:none;stroke:#bdb300;stroke-width:0.1645;stroke-linecap:butt;stroke-linejoin:miter;stroke-miterlimit:3.86369991;stroke-opacity:1;stroke-dasharray:none"
           id="path900" />
        <path
           d="m 432.1831,1100.646 5.3902,0 0,1.2082 -4.1108,0 0,7.2264 -1.2794,0"
           style="fill:#bdb300;fill-opacity:1;fill-rule:nonzero;stroke:none"
           id="path902" />
        <path
           d="m 432.1831,1100.646 5.3902,0 0,1.2082 -4.1108,0 0,7.2264 -1.2794,0 0,-8.4346 z"
           style="fill:none;stroke:#bdb300;stroke-width:0.1645;stroke-linecap:butt;stroke-linejoin:miter;stroke-miterlimit:3.86369991;stroke-opacity:1;stroke-dasharray:none"
           id="path904" />
        <path
           d="m 439.8076,1101.7357 c 0.8886,-0.7818 1.9783,-1.1609 3.2223,-1.1609 1.8124,0 2.9616,0.9004 2.9616,2.4523 0,1.1489 -0.7345,2.2388 -2.3102,2.4285 -0.4027,0.047 -0.7224,0.095 -0.9476,0.1303 -0.8529,0.1302 -1.1965,0.604 -1.1965,1.0779 0,0.8056 0.628,1.2083 1.4098,1.2083 0.7462,0 1.4688,-0.2605 2.0849,-0.6515 l 0.711,1.0543 c -0.7702,0.5094 -1.6942,0.8767 -2.7367,0.8767 -1.7414,0 -2.7484,-1.0188 -2.7484,-2.4641 0,-1.2201 0.7819,-2.168 2.2391,-2.3693 0.438,-0.059 0.7343,-0.1067 1.1134,-0.154 0.7581,-0.095 1.1018,-0.5448 1.1018,-1.1371 0,-0.699 -0.628,-1.1729 -1.6705,-1.1729 -0.9002,0 -1.7531,0.3317 -2.3929,0.8411"
           style="fill:#bdb300;fill-opacity:1;fill-rule:nonzero;stroke:none"
           id="path906" />
        <path
           d="m 439.8076,1101.7357 c 0.8886,-0.7818 1.9783,-1.1609 3.2223,-1.1609 1.8124,0 2.9616,0.9004 2.9616,2.4523 0,1.1489 -0.7345,2.2388 -2.3102,2.4285 -0.4027,0.047 -0.7224,0.095 -0.9476,0.1303 -0.8529,0.1302 -1.1965,0.604 -1.1965,1.0779 0,0.8056 0.628,1.2083 1.4098,1.2083 0.7462,0 1.4688,-0.2605 2.0849,-0.6515 l 0.711,1.0543 c -0.7702,0.5094 -1.6942,0.8767 -2.7367,0.8767 -1.7414,0 -2.7484,-1.0188 -2.7484,-2.4641 0,-1.2201 0.7819,-2.168 2.2391,-2.3693 0.438,-0.059 0.7343,-0.1067 1.1134,-0.154 0.7581,-0.095 1.1018,-0.5448 1.1018,-1.1371 0,-0.699 -0.628,-1.1729 -1.6705,-1.1729 -0.9002,0 -1.7531,0.3317 -2.3929,0.8411 l -0.8411,-0.9596 z"
           style="fill:none;stroke:#bdb300;stroke-width:0.1645;stroke-linecap:butt;stroke-linejoin:miter;stroke-miterlimit:3.86369991;stroke-opacity:1;stroke-dasharray:none"
           id="path908" />
        <path
           d="m 388.2543,1113.8336 11.8261,0 c 4.4581,0 5.9869,0.9215 7.2261,2.3964 1.1486,1.3641 2.0492,3.355 2.0492,5.4559 0,2.6174 -1.5697,5.1984 -4.2298,6.4146 0.9027,0.5528 2.1304,1.6223 2.1304,5.4193 0,2.7282 -1.3596,6.7834 -6.6856,6.7834 l -12.3164,0 0,-26.4696 z m 4.35,11.6493 7.8915,0 c 1.6386,0 3.8007,-0.8841 3.8007,-3.2068 0,-2.6911 -1.7982,-3.8713 -4.0123,-3.8713 l -7.6799,0 0,7.0781 z m 0,10.2488 6.0919,0 c 2.0616,0 3.6855,-0.6633 3.6855,-2.8385 0,-2.1011 -1.7752,-2.9494 -3.5646,-2.9494 l -6.2128,0"
           style="fill:#ffffff;fill-opacity:1;fill-rule:evenodd;stroke:none"
           id="path910" />
        <path
           d="m 388.2543,1113.8336 11.8261,0 c 4.4581,0 5.9869,0.9215 7.2261,2.3964 1.1486,1.3641 2.0492,3.355 2.0492,5.4559 0,2.6174 -1.5697,5.1984 -4.2298,6.4146 0.9027,0.5528 2.1304,1.6223 2.1304,5.4193 0,2.7282 -1.3596,6.7834 -6.6856,6.7834 l -12.3164,0 0,-26.4696 z"
           style="fill:none;stroke:#ffffff;stroke-width:1.2392;stroke-linecap:butt;stroke-linejoin:miter;stroke-miterlimit:3.86369991;stroke-opacity:1;stroke-dasharray:none"
           id="path912" />
        <path
           d="m 392.6043,1125.4829 7.8915,0 c 1.6386,0 3.8007,-0.8841 3.8007,-3.2068 0,-2.6911 -1.7982,-3.8713 -4.0123,-3.8713 l -7.6799,0 0,7.0781 z"
           style="fill:none;stroke:#ffffff;stroke-width:1.2392;stroke-linecap:butt;stroke-linejoin:miter;stroke-miterlimit:3.86369991;stroke-opacity:1;stroke-dasharray:none"
           id="path914" />
        <path
           d="m 392.6043,1135.7317 6.0919,0 c 2.0616,0 3.6855,-0.6633 3.6855,-2.8385 0,-2.1011 -1.7752,-2.9494 -3.5646,-2.9494 l -6.2128,0 0,5.7879 z"
           style="fill:none;stroke:#ffffff;stroke-width:1.2392;stroke-linecap:butt;stroke-linejoin:miter;stroke-miterlimit:3.86369991;stroke-opacity:1;stroke-dasharray:none"
           id="path916" />
      </g>
    </g>
  </g>
</svg>
